<svg clip-rule="evenodd" fill-rule="evenodd" stroke-linejoin="round" stroke-miterlimit="2" viewBox="0 0 284 256" xmlns="http://www.w3.org/2000/svg"><g transform="translate(-66 -80)"><path d="m66 80h284v255.759h-284z" fill="none"/><path d="m3394 3340c-100-50-284-224-647-615-309-332-1075-1125-1087-1125-5 0-131 128-280 284-150 157-279 287-287 290s-33 6-56 6c-38 0-58-11-182-101-172-123-195-147-195-197 1-20 6-47 13-59 24-43 943-1014 965-1019 12-4 31 0 42 7 18 13 812 1041 1135 1469 398 529 685 962 685 1035 0 24-25 45-52 45-7 0-31-9-54-20z" fill="#05386b" fill-rule="nonzero" transform="matrix(.1 0 0 -.1 0 416)"/></g></svg>