<svg clip-rule="evenodd" fill-rule="evenodd" stroke-linejoin="round" stroke-miterlimit="2" viewBox="0 0 225 225" xmlns="http://www.w3.org/2000/svg"><g fill="#05386b" fill-rule="nonzero" transform="matrix(.1 0 0 -.1 0 225)"><path d="m885 2223c-36-10-77-45-91-79-8-19-14-68-14-114v-80h-223c-250 0-274-5-309-71-26-48-26-220 0-268 19-35 72-71 104-71 16 0 18-41 20-662 3-658 3-663 25-703 27-50 75-96 133-126l45-24h540c506 0 543 1 589 19 60 23 120 76 149 130 22 41 22 45 25 702l3 662 32 6c19 4 48 21 68 42l34 35 3 112c3 129-10 167-69 199-30 16-60 18-256 18h-223v80c0 96-15 138-61 171-33 24-38 24-269 26-129 1-244-1-255-4zm974-427c28-25 28-77 0-102-20-18-47-19-734-19s-714 1-734 19c-39 35-23 100 29 119 8 3 331 5 716 4 675-2 703-3 723-21zm-111-899c-3-715 1-674-71-717-31-19-54-20-552-20s-521 1-552 20c-72 43-68 2-71 717l-3 643h1252z"/><path d="m731 1234c-21-26-21-37-21-454s0-428 21-454c28-35 70-35 98 0 21 26 21 37 21 454s0 428-21 454c-13 17-30 26-49 26s-36-9-49-26z"/><path d="m1082 1244-22-15v-445c0-431 1-445 20-464 11-11 31-20 45-20s34 9 45 20c19 19 20 33 20 464v445l-22 15c-12 9-32 16-43 16s-31-7-43-16z"/><path d="m1421 1234c-21-26-21-37-21-454s0-428 21-454c28-35 70-35 98 0 21 26 21 37 21 454s0 428-21 454c-13 17-30 26-49 26s-36-9-49-26z"/></g></svg>