<svg clip-rule="evenodd" fill-rule="evenodd" stroke-linejoin="round" stroke-miterlimit="2" viewBox="0 0 225 225" xmlns="http://www.w3.org/2000/svg"><g fill="#05386b" fill-rule="nonzero" transform="matrix(.1 0 0 -.1 0 225)"><path d="m1665 2223c-16-8-56-41-88-72l-58-56 293-287 293-286 50 55c28 31 58 70 67 87 22 39 23 125 3 173-21 49-339 367-388 388-47 19-133 19-172-2z"/><path d="m1351 1949-64-61 601-601 66 59c36 32 66 61 66 65 0 8-591 599-598 599-4-1-36-28-71-61z"/><path d="m704 1298c-451-452-493-497-508-543-63-199-186-644-186-671 0-45 30-74 76-74 19 0 115 23 212 51 385 110 506 149 536 174 17 14 243 234 501 489l470 465-65 66-65 65-970-966-188-54-188-53-41 40-40 40 114 398 476 477 477 478-55 55c-30 30-57 55-60 55s-226-222-496-492z"/><path d="m1405 1580-958-958 44-11c96-24 93-21 105-86l11-60 479 477 479 478z"/></g></svg>